<svg clip-rule="evenodd" fill-rule="evenodd" height="456" stroke-linejoin="round" stroke-miterlimit="2" viewBox="0 0 456 456" width="456" xmlns="http://www.w3.org/2000/svg"><g fill="#fff" fill-rule="nonzero" stroke-width=".838376"><path d="m105.50037 281.60863c-2.70293 0-5.00091-.90042-6.893127-2.70209-1.892214-1.84778-2.837901-4.04181-2.837901-6.58209 0-2.58722.945687-4.80389 2.837901-6.65167 1.892217-1.84778 4.190197-2.77167 6.893127-2.77167 2.74819 0 5.06798.92389 6.96019 2.77167 1.93749 1.84778 2.90581 4.06445 2.90581 6.65167 0 2.54028-.96832 4.73431-2.90581 6.58209-1.89221 1.80167-4.212 2.70209-6.96019 2.70209z"/><path d="m213.56111 280.08446h-17.57067l-46.29091-73.03006c-1.17121-1.84778-2.14037-3.76515-2.90581-5.75126h-.40578c.36051 2.12528.54076 6.67515.54076 13.6496v65.13172h-15.54349v-99.36009h18.71925l44.7374 71.29798c1.89222 2.95695 3.1087 4.98917 3.64945 6.09751h.26996c-.45021-2.6325-.67573-7.09015-.67573-13.37293v-64.02256h15.47557z"/><path d="m289.25134 280.08446h-54.40052v-99.36009h52.23835v13.99669h-36.15411v28.13085h33.31621v13.9271h-33.31621v29.37835h38.31628z"/><path d="m366.56466 194.72106h-27.84246v85.3634h-16.08423v-85.3634h-27.77455v-13.99669h71.70124z"/></g></svg>