<?xml version="1.0" standalone="no"?>
<!DOCTYPE svg PUBLIC "-//W3C//DTD SVG 20010904//EN"
 "http://www.w3.org/TR/2001/REC-SVG-20010904/DTD/svg10.dtd">
<svg version="1.0" xmlns="http://www.w3.org/2000/svg"
 width="900.000000pt" height="900.000000pt" viewBox="0 0 900.000000 900.000000"
 preserveAspectRatio="xMidYMid meet">

<g transform="translate(0.000000,900.000000) scale(0.100000,-0.100000)"
fill="#000000" stroke="none">
<path d="M0 4500 l0 -4500 4500 0 4500 0 0 4500 0 4500 -4500 0 -4500 0 0
-4500z m8610 10 l0 -4110 -4115 0 -4115 0 0 4110 0 4110 4115 0 4115 0 0
-4110z"/>
<path d="M5549 8483 c-1 -38 -4 -56 -6 -40 -4 28 -23 38 -23 13 0 -8 9 -43 20
-78 21 -66 26 -128 11 -128 -10 0 -21 48 -21 91 0 16 -4 29 -10 29 -5 0 -10
-7 -10 -16 0 -8 -3 -13 -8 -10 -11 7 -6 -95 7 -127 16 -41 14 -58 -5 -50 -14
5 -16 2 -10 -21 4 -15 4 -37 0 -49 -6 -20 -7 -20 -29 7 l-22 28 -1 -59 c0 -35
6 -67 15 -82 14 -22 14 -25 -7 -41 l-23 -17 29 -6 c20 -4 34 -16 44 -39 11
-25 21 -32 38 -31 16 2 22 -2 22 -17 0 -29 -26 -35 -67 -16 -29 14 -38 14 -44
4 -6 -9 -14 -5 -29 15 -26 32 -40 35 -40 6 0 -12 -8 -23 -20 -26 -27 -7 -25
-17 5 -37 14 -9 25 -24 25 -34 0 -14 4 -12 21 8 l20 25 -6 -50 -7 -50 28 25
c28 26 28 25 7 -26 -10 -26 28 -21 58 7 17 16 32 29 34 29 10 0 -21 -82 -37
-97 -18 -16 -21 -17 -49 -1 -28 16 -29 16 -29 -2 0 -18 -2 -18 -36 5 -20 14
-40 25 -44 25 -4 0 -7 -25 -6 -55 1 -38 7 -61 22 -78 11 -13 23 -32 26 -43 3
-10 9 -28 14 -38 6 -16 4 -18 -17 -13 -23 6 -24 4 -20 -36 3 -37 2 -40 -13
-28 -10 9 -16 10 -16 2 0 -6 -9 -11 -20 -11 -30 0 -24 -23 20 -76 l40 -49 -26
-5 -27 -5 41 -37 c23 -21 42 -41 42 -44 0 -3 -21 -3 -46 1 -44 6 -46 5 -41
-14 6 -25 -5 -27 -23 -6 -29 35 -43 -4 -15 -41 18 -24 19 -35 1 -28 -8 3 -17
0 -21 -6 -5 -8 18 -37 59 -76 61 -58 65 -64 47 -74 -11 -5 -36 -10 -55 -10
-20 0 -36 -2 -36 -5 0 -21 35 -67 61 -80 l30 -16 -20 -32 c-11 -18 -30 -34
-43 -37 -17 -4 -23 -12 -23 -30 0 -20 -6 -26 -27 -28 -28 -3 -36 -16 -18 -27
13 -8 13 -51 0 -76 -9 -16 -5 -25 23 -54 34 -35 34 -35 58 -17 13 10 31 17 39
17 8 -1 21 3 28 8 8 7 17 6 24 -1 8 -8 -2 -22 -36 -53 -31 -29 -46 -49 -44
-63 3 -20 -1 -21 -76 -19 -59 1 -76 -1 -67 -10 18 -18 13 -27 -16 -27 -21 0
-24 -3 -13 -10 8 -5 11 -12 7 -16 -4 -4 -1 -14 5 -22 7 -8 11 -27 10 -43 -2
-25 1 -29 23 -29 18 0 25 -5 25 -19 0 -23 28 -35 46 -20 11 9 14 6 14 -17 0
-22 3 -26 10 -14 5 8 10 13 11 10 0 -3 2 -15 5 -28 5 -27 -26 -42 -87 -42 -40
0 -51 -14 -27 -38 6 -6 9 -15 5 -19 -4 -4 -13 -1 -19 5 -14 14 -48 16 -48 4 0
-5 11 -19 24 -31 14 -13 22 -29 20 -35 -6 -15 13 -67 23 -65 24 4 36 -5 52
-42 11 -23 22 -36 25 -30 14 23 25 10 15 -18 -14 -39 -44 -65 -69 -58 -11 3
-20 1 -20 -5 0 -6 -11 -8 -25 -6 -19 4 -25 1 -25 -12 0 -10 -10 -20 -22 -24
-21 -5 -21 -6 -5 -18 9 -7 19 -29 21 -48 8 -63 24 -92 46 -85 14 5 20 2 20 -9
0 -9 5 -16 10 -16 6 0 10 5 10 12 0 6 7 3 15 -8 13 -17 14 -17 15 -1 0 20 20
23 20 3 0 -8 3 -21 6 -29 6 -16 -4 -19 -94 -32 -26 -4 -41 -11 -39 -18 2 -7
11 -11 21 -9 19 3 20 -2 4 -27 -9 -15 -9 -23 1 -35 8 -9 19 -16 25 -16 13 0
46 -35 46 -49 0 -13 -27 -21 -71 -21 -36 0 -40 -2 -34 -21 5 -15 2 -22 -14
-26 -12 -3 -21 -9 -21 -13 0 -12 30 -21 42 -14 7 5 9 -2 4 -20 -6 -24 -4 -26
29 -26 27 0 35 -4 35 -17 -1 -10 0 -607 2 -1328 3 -1417 5 -1352 -51 -1521
-56 -166 -164 -311 -291 -392 -30 -19 -57 -38 -60 -41 -8 -10 -170 -61 -230
-72 -74 -13 -262 -12 -330 2 -30 6 -81 19 -113 30 -231 74 -399 267 -467 536
-41 165 -43 237 -37 1588 l6 1290 -55 190 c-64 217 -172 597 -200 698 -10 37
-22 67 -25 67 -4 0 -9 -13 -12 -30 -13 -61 -20 -44 -85 180 -8 27 -10 30 -11
12 -1 -13 -5 -21 -10 -18 -5 4 -11 0 -14 -6 -2 -7 -7 -2 -10 12 -26 116 -49
258 -62 380 -9 80 -20 168 -25 195 -10 52 -21 122 -41 240 -22 135 -30 175
-38 175 -9 0 -31 105 -31 148 0 17 -4 62 -10 99 -5 38 -19 136 -30 218 -11 83
-26 188 -34 235 -8 47 -17 106 -21 133 -3 26 -10 47 -14 47 -5 0 -11 -24 -14
-52 -14 -123 -38 -340 -47 -428 -6 -52 -19 -148 -30 -212 -11 -65 -24 -195
-30 -290 -9 -170 -31 -345 -51 -423 -6 -22 -24 -71 -40 -109 -16 -37 -29 -79
-29 -91 0 -63 -15 -56 -29 13 -9 40 -20 73 -26 72 -16 -1 -24 -42 -45 -240
-12 -102 -27 -205 -35 -230 -7 -25 -23 -85 -35 -134 -28 -112 -114 -315 -143
-337 -4 -3 -18 -47 -30 -97 -12 -51 -27 -92 -33 -92 -20 0 -41 -42 -83 -175
l-42 -130 1 -640 c2 -1158 17 -2168 34 -2290 26 -198 90 -450 120 -481 8 -8
13 -21 10 -29 -4 -9 0 -15 10 -15 9 0 16 -3 17 -7 1 -5 2 -24 3 -43 2 -19 15
-52 29 -73 14 -21 29 -48 32 -58 7 -19 8 -20 26 -3 20 18 25 9 9 -16 -6 -9 -5
-17 3 -22 9 -6 9 -10 -1 -16 -22 -15 6 -62 37 -62 19 0 22 -3 13 -12 -18 -18
-15 -35 10 -60 13 -13 23 -27 23 -33 0 -5 10 -14 23 -20 23 -10 30 -25 11 -25
-8 0 -8 -4 1 -15 9 -10 24 -13 54 -9 34 5 44 3 49 -10 5 -13 -1 -16 -34 -16
l-40 0 36 -47 c27 -35 42 -47 58 -45 17 3 19 1 10 -10 -9 -10 6 -31 71 -98
149 -153 177 -173 192 -128 6 19 7 19 16 5 5 -11 5 -24 -2 -37 -9 -17 -7 -24
12 -40 29 -24 47 -25 64 -2 11 14 13 14 14 2 1 -39 16 -42 73 -14 53 26 55 28
36 42 -18 12 -22 12 -33 -3 -11 -16 -13 -16 -19 -2 -8 22 30 67 56 66 12 0 16
-3 10 -6 -19 -7 -16 -27 6 -47 12 -11 16 -25 13 -41 -5 -28 -3 -29 32 -15 21
8 26 6 32 -12 4 -14 1 -24 -10 -30 -21 -12 -20 -28 2 -28 9 0 27 15 40 33 l22
32 0 -27 c0 -15 -8 -35 -19 -45 -10 -10 -21 -33 -23 -51 -4 -26 0 -35 16 -44
15 -8 21 -8 24 1 6 18 22 13 22 -7 0 -11 11 -24 25 -30 23 -11 25 -9 25 11 0
16 17 37 51 65 29 23 55 42 60 42 15 0 19 -18 4 -24 -8 -3 -15 -12 -15 -21 0
-8 -9 -15 -20 -15 -24 0 -46 -35 -28 -46 7 -5 4 -10 -10 -15 -27 -10 -28 -25
-3 -32 29 -7 111 4 111 16 0 6 8 19 18 30 17 19 16 20 -20 13 -38 -7 -38 -7
-26 19 10 23 13 24 28 10 10 -9 36 -15 63 -15 63 0 60 -28 -4 -44 -15 -3 -34
-17 -43 -31 -9 -14 -24 -25 -34 -26 -10 0 -5 -5 12 -11 24 -9 31 -8 42 6 11
16 16 15 65 -10 30 -15 59 -33 64 -41 8 -11 17 -12 38 -4 32 12 54 6 62 -19 6
-19 35 -36 35 -20 0 5 15 6 34 3 27 -4 36 -1 49 17 21 30 47 20 47 -19 0 -24
5 -32 24 -37 14 -3 33 -4 43 -1 11 3 8 5 -11 6 -24 1 -27 3 -16 16 10 12 10
18 -1 31 -10 13 -10 17 2 25 22 14 37 11 87 -19 39 -22 43 -28 26 -30 -16 -2
-20 -8 -17 -23 3 -10 9 -19 13 -19 5 0 15 -3 24 -6 10 -4 16 -1 16 8 0 8 9 23
20 33 10 9 24 33 31 52 12 37 23 34 33 -9 5 -22 0 -31 -32 -57 l-37 -30 33 -1
c25 0 35 5 41 23 5 12 18 31 30 42 19 16 24 17 31 5 6 -10 3 -21 -10 -35 -26
-27 -25 -32 5 -37 19 -4 25 -1 25 12 0 22 15 34 60 49 l35 12 -40 -42 -40 -41
105 6 c202 12 260 18 260 27 0 5 -9 9 -20 9 -11 0 -20 5 -20 10 0 6 9 10 19
10 11 0 26 3 35 6 12 4 16 0 16 -15 0 -18 6 -21 40 -21 39 0 80 26 80 50 0 6
7 10 15 10 10 0 15 10 15 31 0 25 -4 30 -17 26 -10 -2 -24 -6 -32 -8 -10 -3
-17 9 -23 41 -7 39 -6 47 12 59 20 14 20 14 -11 33 -24 15 -29 22 -20 31 9 9
14 8 21 -3 8 -12 11 -11 16 7 8 30 22 29 34 -3 10 -25 12 -25 33 -11 15 10 21
24 20 43 -2 25 -1 26 13 12 13 -13 13 -21 2 -56 -7 -23 -19 -42 -26 -42 -15 0
-62 -45 -62 -60 0 -5 15 -10 34 -10 38 0 51 -12 60 -57 6 -25 3 -34 -15 -47
-20 -13 -20 -16 -6 -22 11 -4 35 9 71 40 49 43 56 46 80 35 21 -10 24 -15 14
-27 -11 -13 -9 -14 12 -7 14 4 32 16 40 26 12 15 18 17 27 8 18 -18 83 7 83
32 0 24 -8 24 -36 -2 -25 -23 -44 -18 -44 11 0 10 -12 27 -27 39 -23 16 -26
23 -17 37 18 30 36 30 28 0 -5 -21 -3 -26 12 -26 11 0 27 12 37 25 15 21 15
25 3 25 -25 0 -28 18 -5 31 16 8 23 8 29 0 3 -7 14 -9 22 -6 13 5 18 -5 27
-45 6 -28 8 -63 5 -78 -5 -27 -5 -27 13 -7 10 11 31 21 46 21 58 4 427 207
427 236 0 6 -7 8 -15 4 -9 -3 -15 0 -15 9 0 16 -5 20 -44 29 -26 7 -28 5 -22
-18 6 -24 5 -24 -25 -16 -43 13 -44 14 -15 45 15 16 26 33 26 39 1 6 14 38 30
71 23 47 29 53 26 30 -2 -16 -7 -38 -11 -48 -6 -14 -4 -16 10 -11 13 5 16 3
13 -7 -2 -8 -14 -15 -26 -17 -26 -4 -30 -32 -4 -32 9 0 26 -7 36 -15 17 -13
22 -12 44 5 34 27 39 25 34 -15 -5 -39 11 -47 30 -15 7 11 18 20 23 20 6 0 16
5 23 12 9 9 5 15 -21 26 -31 14 -32 14 -9 25 17 8 26 6 40 -6 12 -11 22 -13
34 -6 16 9 16 11 -2 29 -40 40 -20 61 36 40 32 -13 61 4 44 25 -11 13 5 24 38
26 9 0 34 21 56 45 38 44 38 44 13 44 -14 0 -28 6 -30 13 -4 8 -12 4 -26 -13
l-20 -25 -9 25 c-22 61 -23 79 -2 100 23 23 62 26 79 6 10 -12 9 -20 -4 -39
-17 -27 -10 -38 31 -51 17 -5 29 3 56 36 19 24 36 48 38 53 1 6 17 27 36 48
39 42 41 49 17 45 -20 -3 -31 38 -16 53 14 14 43 0 43 -20 0 -9 25 22 54 69
l55 85 -20 33 c-10 18 -19 35 -19 38 0 10 22 2 39 -15 19 -19 20 -18 64 82 78
178 127 340 161 538 34 193 38 398 31 1584 -7 1461 -9 1572 -33 1599 -10 12
-12 16 -3 11 11 -6 13 -4 8 11 -5 14 -2 12 13 -6 16 -21 20 -22 20 -7 0 10 4
16 9 13 5 -3 12 1 15 10 3 8 11 12 17 8 9 -5 10 1 5 21 -6 22 -4 26 8 22 9 -4
18 -2 21 4 4 5 -1 12 -9 15 -9 3 -16 14 -16 25 0 14 -9 19 -47 21 -26 2 -48 9
-51 16 -2 6 4 12 14 12 9 0 14 3 11 7 -4 3 3 11 16 18 14 7 21 19 20 33 -2 12
2 22 7 22 6 0 10 4 10 9 0 5 -24 12 -54 15 -30 4 -60 14 -67 22 -10 12 -9 13
4 9 8 -4 18 -1 22 4 3 6 11 9 16 6 5 -4 9 -2 9 4 0 6 7 8 15 5 8 -4 15 -1 15
5 0 6 7 11 15 11 18 0 35 31 35 64 0 14 5 26 10 26 6 0 10 5 10 10 0 6 -7 10
-15 10 -8 0 -14 5 -13 12 2 6 -10 14 -27 18 -43 9 -73 27 -86 51 -9 18 -8 20
8 17 13 -2 21 5 28 27 6 16 17 30 25 30 16 0 41 35 34 46 -2 4 3 12 11 19 23
19 18 33 -11 26 -22 -6 -24 -5 -15 13 19 35 14 44 -23 37 -18 -4 -46 -1 -62 5
-29 11 -29 11 -6 22 12 5 22 16 22 24 0 8 4 11 10 8 5 -3 18 -1 27 4 10 6 14
11 8 12 -5 0 1 4 15 8 16 5 26 16 31 36 4 17 10 38 14 48 6 13 2 17 -15 17
-20 0 -21 2 -9 17 13 15 9 16 -54 9 -66 -6 -68 -6 -62 14 3 11 2 20 -4 20 -15
0 -72 51 -66 60 7 11 62 5 80 -10 10 -8 15 -9 15 -2 0 6 6 9 14 6 14 -5 25 20
40 89 5 22 3 27 -13 27 -22 0 -45 25 -36 40 3 5 0 10 -7 10 -7 0 -25 12 -39
28 l-26 27 33 25 c41 31 50 50 23 50 -11 0 -29 5 -41 11 -19 10 -17 14 34 60
42 39 50 50 39 58 -12 8 -13 14 -3 37 15 31 9 42 -13 24 -12 -10 -15 -9 -15 5
0 15 -6 17 -40 11 -22 -3 -40 -4 -40 -1 0 3 15 19 33 35 24 22 28 29 15 30
-25 0 -23 7 12 47 17 18 30 38 30 43 0 10 -29 15 -59 10 -10 -1 -12 6 -9 24 4
20 1 26 -13 26 -26 0 -24 10 11 61 19 29 30 57 30 81 0 36 0 37 -29 27 -15 -5
-32 -9 -37 -8 -5 1 -22 -1 -37 -6 -34 -9 -52 6 -63 50 l-7 30 29 -27 c31 -29
60 -25 48 5 -5 13 -2 16 9 11 13 -4 15 0 11 20 -4 25 9 36 21 16 3 -5 16 2 29
17 l23 27 -21 17 c-20 17 -22 17 -43 -3 -20 -19 -23 -19 -23 -4 0 15 -2 15
-30 1 -37 -19 -56 -19 -64 1 -9 23 -8 24 16 21 17 -1 24 4 26 20 2 15 13 25
28 29 13 3 24 11 23 18 -2 6 1 29 6 51 14 70 14 74 6 80 -5 2 -14 -2 -21 -10
-20 -24 -30 -17 -30 20 0 26 -4 33 -14 29 -8 -3 -17 -18 -19 -32 -3 -21 -4
-19 -6 10 0 21 5 43 14 51 21 22 37 97 20 97 -7 0 -16 6 -18 13 -3 6 -6 -5 -6
-25 -1 -37 -14 -57 -26 -38 -3 5 -2 24 3 42 5 18 6 67 2 108 -4 41 -8 64 -9
50 -2 -43 -13 -70 -24 -63 -7 4 -8 0 -3 -13 4 -10 9 -41 12 -69 3 -47 3 -48
-7 -18 -14 40 -49 52 -49 17 0 -33 3 -39 18 -38 18 2 15 -14 -6 -27 -17 -11
-16 -13 10 -39 21 -22 28 -38 28 -67 l-1 -38 -24 30 c-14 17 -25 36 -25 43 0
7 -5 10 -11 6 -6 -3 -15 0 -20 7 -6 10 -9 8 -9 -8 0 -13 -5 -23 -10 -23 -6 0
-4 -14 4 -35 8 -19 11 -35 5 -35 -15 0 -10 -20 11 -47 24 -30 25 -43 6 -43
-25 0 -27 -16 -6 -43 25 -31 25 -37 2 -37 -28 0 -54 -34 -50 -67 2 -20 8 -27
21 -25 11 2 17 -4 17 -15 1 -15 3 -13 14 6 12 22 13 22 21 5 7 -18 7 -18 15 1
5 11 9 14 9 6 1 -11 4 -11 16 -1 21 17 19 1 -5 -38 -22 -36 -46 -50 -62 -34
-14 14 -48 3 -48 -17 0 -14 -7 -17 -30 -13 -23 3 -30 0 -30 -12 0 -9 4 -16 9
-16 5 0 11 -13 14 -29 5 -25 10 -28 36 -25 20 2 33 -2 39 -12 7 -13 13 -14 31
-5 18 10 21 9 21 -8 0 -46 -55 -65 -98 -35 -22 15 -23 15 -16 -12 6 -21 4 -25
-7 -18 -19 11 -49 13 -49 1 0 -11 39 -62 48 -62 4 0 6 -8 5 -17 -2 -10 2 -18
8 -18 6 0 9 -7 6 -15 -9 -23 10 -27 43 -10 27 14 30 14 30 0 0 -9 5 -13 10
-10 16 10 12 -31 -5 -45 -10 -8 -28 -10 -51 -5 -36 6 -36 6 -30 -20 6 -24 5
-25 -14 -15 -17 9 -26 7 -47 -10 l-26 -20 31 -12 c35 -14 40 -29 16 -49 -13
-11 -12 -15 17 -38 35 -27 67 -34 87 -19 18 15 16 -12 -4 -40 -12 -17 -25 -23
-48 -22 -50 3 -56 1 -49 -17 5 -12 2 -15 -9 -10 -9 3 -24 -1 -35 -8 -15 -13
-16 -16 -3 -24 12 -8 8 -13 -20 -25 -19 -8 -36 -13 -37 -12 -2 1 6 34 17 72
27 93 26 97 -9 89 -23 -5 -32 -2 -40 13 -9 16 -4 28 23 63 42 56 66 102 66
129 0 21 -1 21 -32 -5 -18 -15 -34 -23 -36 -17 -2 6 -10 8 -18 5 -18 -7 -18 1
2 39 12 23 14 36 6 48 -5 9 -7 29 -4 45 4 23 2 27 -12 22 -19 -7 -21 9 -6 49
13 33 8 39 -19 24 -26 -14 -27 -5 -1 60 24 62 26 77 5 60 -26 -22 -32 18 -11
71 5 12 1 18 -15 22 -17 5 -21 11 -17 31 3 14 1 26 -3 26 -5 0 -9 41 -9 90 0
61 -4 90 -11 90 -8 0 -10 -18 -6 -58 8 -95 -7 -139 -31 -89 -10 20 -11 18 -11
-20 -1 -23 3 -44 8 -47 4 -3 9 -29 9 -58 l1 -53 -24 45 c-28 53 -31 36 -10
-60 8 -36 14 -81 14 -100 l1 -35 -21 25 -21 25 6 -32 c3 -18 9 -46 12 -63 6
-29 -7 -42 -21 -20 -3 6 -16 10 -27 10 l-21 0 20 -22 c42 -47 57 -112 33 -148
-9 -13 -12 -13 -21 3 -17 30 -30 20 -23 -19 6 -30 4 -36 -15 -41 -26 -7 -26
-16 -1 -72 11 -24 20 -44 20 -45 0 0 -13 -1 -29 -2 -22 -1 -27 3 -24 16 6 23
-21 32 -51 19 -33 -15 -63 3 -74 44 -10 37 -9 42 10 31 24 -15 62 -9 85 14 12
12 31 22 43 22 24 0 26 13 5 30 -21 17 -19 47 4 55 11 3 25 12 31 20 19 22
-26 57 -64 50 -26 -5 -28 -3 -23 21 4 25 4 26 -38 20 -32 -5 -47 -3 -59 9 -34
35 -3 82 40 63 32 -15 57 -3 49 22 -3 11 -2 20 4 20 5 0 11 12 13 28 2 17 8
26 18 25 8 -2 21 10 28 25 26 52 26 56 9 49 -9 -3 -19 -2 -23 4 -3 6 -11 3
-20 -8 -12 -16 -13 -15 -14 16 0 32 -1 33 -18 18 -10 -9 -32 -20 -49 -23 -25
-5 -34 -2 -47 17 -15 22 -22 59 -11 59 3 0 16 -7 29 -15 23 -15 24 -15 30 11
5 20 10 24 19 15 16 -16 30 -14 23 4 -4 11 0 15 12 13 12 -2 18 5 20 27 2 17
10 34 18 38 20 11 17 37 -3 38 -24 2 -25 2 -46 -7 -16 -6 -17 -3 -11 21 6 25
5 28 -15 22 -11 -3 -21 -1 -21 4 0 5 -8 4 -19 -2 -10 -7 -25 -9 -34 -6 -24 9
-49 64 -41 89 6 21 7 21 19 -3 l13 -24 8 29 7 29 12 -29 c11 -25 14 -27 20
-11 5 11 14 16 23 12 18 -7 42 12 42 32 0 24 -60 93 -81 93 -25 0 -24 15 2 51
21 30 19 49 -7 49 -21 0 -17 18 11 52 27 32 33 64 13 70 -9 3 -9 12 1 37 11
26 12 36 1 56 -7 13 -17 22 -22 19 -4 -3 -8 1 -8 8 0 7 -14 -11 -30 -39 -38
-67 -54 -69 -47 -6 4 38 12 53 38 75 l32 27 -26 21 c-30 24 -28 41 3 33 23 -6
25 0 9 29 -8 14 -8 23 0 31 6 6 11 17 11 24 0 24 -48 -19 -55 -49 -4 -15 -10
-30 -14 -32 -8 -5 3 89 17 147 6 20 6 37 2 37 -5 0 -10 -8 -12 -17 -3 -10 -10
8 -17 40 -7 31 -14 57 -17 57 -2 0 -5 -30 -5 -67z m92 -489 c-12 -43 -37 -84
-52 -84 -16 0 -10 21 22 77 35 61 45 63 30 7z m-2647 -309 c8 -68 10 -119 4
-134 -9 -26 6 -195 24 -268 8 -32 16 -43 29 -43 11 0 19 -4 19 -9 0 -4 9 -61
20 -126 27 -153 50 -316 55 -385 l5 -55 -13 40 c-14 45 -44 105 -54 105 -11 0
7 -233 22 -290 27 -101 85 -379 96 -458 5 -42 18 -126 29 -187 30 -178 34
-294 14 -375 -9 -39 -18 -69 -20 -68 -1 2 -12 32 -24 68 -14 41 -24 94 -25
145 -3 98 -101 800 -124 894 -5 20 -14 81 -21 136 -6 55 -13 111 -16 125 -2
14 -9 77 -14 140 -5 63 -18 203 -30 310 -18 167 -20 203 -9 257 10 49 10 102
1 250 -7 103 -12 199 -11 213 1 27 21 -105 43 -285z m-77 243 c-3 -8 -6 -5 -6
6 -1 11 2 17 5 13 3 -3 4 -12 1 -19z m3458 -293 c28 -49 30 -87 1 -44 -16 25
-39 89 -31 89 2 0 15 -20 30 -45z m-931 -150 c11 -8 31 -15 45 -15 24 -1 25
-1 8 -15 -23 -17 -55 -7 -75 23 -17 25 -6 28 22 7z m947 -28 c-10 -9 -11 -8
-5 6 3 10 9 15 12 12 3 -3 0 -11 -7 -18z m-488 -696 c9 -16 17 -40 17 -53 -1
-19 -6 -14 -25 22 -13 25 -24 48 -25 53 -1 17 17 5 33 -22z m317 -130 c14 -27
13 -31 -10 -31 -30 0 -24 -15 22 -53 l42 -35 -27 -13 c-20 -9 -31 -9 -38 -2
-8 8 -21 7 -45 -3 -40 -17 -74 -18 -74 -3 0 6 5 20 11 32 11 20 21 34 76 104
22 28 29 28 43 4z m-3555 -151 c6 -67 3 -89 -38 -275 -35 -156 -70 -374 -122
-747 -16 -116 -23 -140 -37 -132 -6 4 -17 -1 -25 -11 -13 -18 -13 -18 -13 1 1
24 40 200 73 324 14 52 30 140 36 195 21 185 33 259 46 300 7 22 16 67 19 100
4 33 13 114 21 180 8 66 15 138 16 160 l1 40 8 -35 c5 -19 12 -64 15 -100z
m3185 23 c0 -7 -62 -2 -84 7 -36 13 -33 25 17 52 l42 24 12 -41 c7 -22 13 -41
13 -42z m318 -213 c10 0 23 -4 30 -9 21 -13 -13 -41 -49 -41 -16 0 -29 2 -29
4 0 2 -3 11 -6 19 -3 8 3 22 12 32 12 11 19 14 22 6 2 -6 11 -11 20 -11z
m-2874 -153 c4 -154 -13 -114 -20 48 -4 83 -2 106 6 92 6 -9 13 -72 14 -140z
m142 -258 c6 -8 28 -74 49 -148 35 -127 37 -138 25 -187 -14 -58 -9 -74 24
-74 20 0 26 -11 48 -82 l26 -83 -28 -3 c-24 -3 -41 9 -109 77 -44 44 -83 91
-86 103 -10 45 -35 195 -45 268 -6 41 -13 83 -16 92 -4 13 -1 16 10 12 11 -4
16 -1 16 10 0 9 9 33 20 53 11 21 23 53 27 73 7 33 8 31 17 -31 6 -37 16 -73
22 -80z m-677 -379 c15 -107 31 -198 38 -216 3 -9 -2 -14 -13 -14 -18 0 -64
58 -64 79 0 5 -5 11 -11 13 -7 2 -5 40 5 123 9 65 16 124 17 130 1 26 17 -38
28 -115z m-360 -2056 c-14 -18 -24 -11 -15 11 3 9 11 13 16 10 8 -5 7 -11 -1
-21z m899 -70 c-10 -10 -28 6 -28 24 0 15 1 15 17 -1 9 -9 14 -19 11 -23z
m2399 1 c-4 -8 -14 -15 -23 -15 -16 0 -16 2 1 20 20 22 31 20 22 -5z m203 -99
c0 -22 -11 -46 -21 -46 -5 0 -9 14 -9 30 0 20 5 30 15 30 8 0 15 -6 15 -14z
m-3057 -130 c3 -8 3 -17 0 -20 -10 -10 -53 -7 -53 4 0 6 7 10 15 10 8 0 15 5
15 10 0 15 17 12 23 -4z m421 -400 c-6 -25 -40 -53 -51 -42 -3 2 7 21 22 41
31 40 39 40 29 1z m3156 9 c11 -13 8 -15 -20 -15 -28 0 -31 2 -20 15 7 8 16
15 20 15 4 0 13 -7 20 -15z m-1008 -38 c-6 -7 -8 -23 -5 -36 5 -21 4 -22 -15
-10 -31 20 -35 38 -9 49 32 13 41 12 29 -3z m1151 -59 c6 -21 -4 -48 -19 -48
-14 0 -20 41 -7 53 10 11 21 8 26 -5z m-3429 -44 c9 -23 8 -24 -13 -24 -14 0
-18 5 -14 20 6 24 19 26 27 4z m-210 -46 c-35 -9 -45 -1 -20 18 15 11 22 11
34 2 12 -10 10 -14 -14 -20z m3076 -3 c19 -20 20 -25 8 -25 -30 0 -48 12 -48
31 0 26 12 24 40 -6z m680 -15 c-9 -17 -30 -28 -30 -16 0 16 15 36 26 36 12 0
12 -4 4 -20z m-4426 -18 c-22 -5 -31 7 -14 18 9 6 17 5 22 -3 4 -7 1 -13 -8
-15z m1342 -119 c-2 -3 -14 -2 -27 2 -16 6 -18 9 -8 16 13 7 45 -9 35 -18z
m2134 -23 c-9 -17 -14 -18 -32 -9 -17 9 -18 13 -7 20 8 5 22 9 32 9 15 0 16
-3 7 -20z m333 -70 c-9 -10 -33 34 -32 59 0 23 3 21 18 -14 10 -22 16 -42 14
-45z m367 60 c0 -18 -26 -40 -49 -40 -6 0 -11 7 -11 15 0 8 7 15 15 15 9 0 18
7 21 15 9 22 24 18 24 -5z m224 -86 c4 -9 4 -19 2 -21 -8 -8 -26 8 -26 23 0
19 16 18 24 -2z m-3108 -30 c-3 -9 -6 -20 -6 -25 0 -20 -18 -7 -22 16 -4 20
-1 25 14 25 14 0 18 -5 14 -16z m-406 -19 c-10 -12 -16 -13 -26 -4 -20 16 -18
19 12 19 22 0 25 -2 14 -15z m3075 -15 c-5 -8 -11 -8 -17 -2 -6 6 -7 16 -3 22
5 8 11 8 17 2 6 -6 7 -16 3 -22z m-741 -31 c-3 -5 -12 -9 -20 -9 -14 0 -20 31
-7 44 9 9 34 -24 27 -35z m-2784 6 c0 -13 -28 -35 -45 -35 -9 0 28 49 38 50 4
0 7 -7 7 -15z m688 -14 c3 -8 -1 -12 -9 -9 -7 2 -15 10 -17 17 -3 8 1 12 9 9
7 -2 15 -10 17 -17z m-824 -73 c-3 -4 -17 -8 -32 -8 l-27 1 24 20 c18 15 26
17 32 7 4 -6 5 -16 3 -20z m353 4 c15 -15 39 -35 53 -45 l25 -18 -30 5 c-16 2
-45 10 -63 17 -28 12 -34 12 -42 -1 -8 -12 -10 -11 -10 5 0 18 25 65 35 65 2
0 16 -12 32 -28z m2773 -2 c0 -5 -11 -10 -25 -10 -14 0 -25 5 -25 10 0 6 11
10 25 10 14 0 25 -4 25 -10z m910 -110 c-17 -32 -21 -19 -8 26 9 31 13 34 16
17 2 -12 -2 -32 -8 -43z m-3132 28 c3 -14 -2 -15 -24 -9 -39 10 -45 34 -8 29
17 -2 30 -10 32 -20z m2755 8 c3 -8 3 -17 0 -20 -9 -9 -44 14 -38 25 9 14 32
11 38 -5z m-3818 -22 c24 -16 33 -34 18 -34 -5 0 -21 11 -38 25 -33 27 -18 34
20 9z m3532 -53 c-19 -22 -41 -49 -47 -61 -8 -16 -15 -19 -22 -12 -26 26 40
112 85 112 17 0 14 -5 -16 -39z m437 -22 c-22 -25 -36 -24 -60 2 -19 21 -19
22 3 15 15 -5 31 -1 45 9 29 19 37 2 12 -26z m-2691 12 c22 13 22 1 0 -23 -20
-22 -27 -22 -59 -1 -29 19 -14 36 21 23 12 -4 29 -4 38 1z m-1033 -15 c0 -2 3
-11 6 -20 5 -13 -1 -16 -25 -16 -33 0 -39 8 -19 28 11 11 38 17 38 8z m190
-41 c0 -6 -6 -19 -13 -30 -13 -17 -15 -17 -31 6 -15 21 -15 25 -1 35 8 6 15
17 15 25 1 17 30 -19 30 -36z m2348 -7 c12 -31 12 -41 1 -54 -11 -14 -14 -13
-26 10 -8 15 -22 26 -33 26 -25 0 -27 35 -2 49 28 17 45 8 60 -31z m-1341 7
c9 -25 -2 -27 -28 -6 l-24 20 23 1 c12 0 25 -7 29 -15z m-327 -41 c0 -14 -4
-23 -10 -19 -5 3 -10 15 -10 26 0 10 5 19 10 19 6 0 10 -12 10 -26z m-213 -11
c-3 -3 -21 -2 -39 2 -28 7 -30 9 -13 15 20 7 62 -7 52 -17z m-273 -9 c9 -23 7
-54 -2 -54 -8 0 -16 14 -40 63 -2 4 5 7 16 7 11 0 23 -7 26 -16z m1085 -25 c9
-26 8 -30 -6 -27 -16 3 -36 52 -26 62 10 9 21 -3 32 -35z m-309 -24 c-37 -39
-56 -31 -23 10 18 22 31 31 37 25 6 -6 1 -19 -14 -35z m1860 -30 c0 -29 4 -36
25 -41 14 -3 32 -1 40 6 8 6 23 9 34 5 10 -3 22 -1 26 5 13 21 32 10 28 -17
l-4 -28 -75 3 c-71 3 -74 5 -80 30 -4 15 -11 33 -16 39 -12 15 -2 47 12 38 5
-3 10 -22 10 -40z m513 15 c6 -23 -13 -36 -39 -26 -13 5 -13 9 3 30 20 27 28
26 36 -4z m328 -23 c-8 -8 -11 -4 -11 14 0 33 14 47 18 19 2 -12 -1 -27 -7
-33z m-1728 3 c27 -38 22 -52 -11 -32 -14 9 -35 72 -24 72 4 0 20 -18 35 -40z
m-1635 -26 c12 -8 10 -13 -12 -27 -14 -9 -30 -17 -36 -17 -13 0 -13 17 0 25 6
3 10 21 10 38 1 29 2 30 12 12 6 -11 18 -25 26 -31z m1996 30 c8 -21 -1 -34
-18 -28 -8 3 -12 14 -9 25 6 23 19 25 27 3z m422 -4 c17 0 22 -4 17 -16 -4
-11 -13 -14 -30 -9 -14 3 -31 1 -39 -6 -15 -12 -18 -2 -8 26 4 9 13 14 21 11
8 -3 25 -6 39 -6z m-1522 -55 c7 -20 -3 -19 -41 5 -18 11 -33 26 -33 35 0 12
6 11 34 -6 19 -11 37 -26 40 -34z m375 26 c8 -14 7 -20 -2 -24 -7 -3 -18 6
-24 19 -9 19 -8 24 3 24 7 0 18 -9 23 -19z m-1785 -16 c-7 -17 -30 -20 -38 -6
-4 5 0 12 6 14 25 10 37 7 32 -8z m3611 -54 c-10 -9 -25 14 -24 37 l1 27 13
-30 c7 -16 12 -32 10 -34z m-2666 23 c12 -15 21 -35 21 -46 0 -17 6 -18 63
-12 50 5 65 3 69 -7 4 -11 -10 -14 -63 -16 -65 -2 -70 0 -86 25 -9 15 -18 28
-19 30 -1 2 -12 -2 -25 -8 -19 -11 -21 -10 -16 5 4 9 7 25 7 36 0 27 25 24 49
-7z m-362 -14 c-13 -35 -22 -38 -37 -11 -8 16 -6 22 7 30 33 19 42 14 30 -19z
m713 10 c0 -11 -48 -25 -56 -17 -4 3 -3 10 1 16 8 14 55 14 55 1z m-1145 -37
c23 -31 -5 -59 -33 -31 -7 7 -8 17 -1 30 12 22 18 23 34 1z m1515 -3 c0 -11
-6 -20 -14 -20 -9 0 -12 7 -9 20 3 11 9 20 14 20 5 0 9 -9 9 -20z m-1316 -19
c8 -12 -21 -34 -34 -26 -8 5 -8 11 1 21 13 16 25 18 33 5z m484 -29 c4 -25 -1
-27 -29 -11 -16 8 -18 13 -8 25 16 19 33 13 37 -14z m-193 7 c12 -19 -5 -23
-22 -6 -16 16 -16 17 -1 17 9 0 20 -5 23 -11z m1645 -4 c0 -13 -28 -35 -45
-35 -9 0 28 49 38 50 4 0 7 -7 7 -15z m1448 -12 c3 -10 -13 -13 -56 -13 -32 0
-88 -3 -123 -6 -54 -6 -62 -4 -51 7 8 8 45 16 90 20 104 8 135 6 140 -8z
m-2257 -28 c19 0 23 -24 5 -31 -9 -3 -16 -17 -16 -30 0 -28 0 -27 -36 -14 -26
10 -26 11 -9 30 11 12 15 28 11 43 -7 31 3 42 20 19 7 -9 18 -17 25 -17z
m1819 15 c0 -21 -16 -26 -39 -11 -18 11 -5 31 20 31 12 0 19 -7 19 -20z m-487
-23 c-11 -40 -44 -78 -66 -75 -23 3 -36 28 -14 28 8 0 26 18 41 40 28 42 48
46 39 7z m-2692 9 c-15 -18 -81 -26 -81 -10 0 16 17 22 59 23 27 1 31 -1 22
-13z m2251 -3 c26 -23 22 -33 -11 -33 -26 0 -41 14 -41 41 0 15 32 10 52 -8z
m136 5 c-7 -19 -38 -22 -38 -4 0 10 9 16 21 16 12 0 19 -5 17 -12z m112 3 c0
-18 -17 -20 -36 -6 -18 14 -18 14 9 15 15 0 27 -4 27 -9z m-2615 -11 c-3 -5
-17 -10 -30 -10 -13 0 -27 5 -30 10 -4 6 8 10 30 10 22 0 34 -4 30 -10z m1197
-15 c-2 -14 -8 -25 -13 -25 -10 0 -12 34 -2 43 13 14 20 6 15 -18z m638 -16
c0 -14 9 -21 30 -25 33 -7 36 -14 18 -32 -22 -22 -39 -13 -58 31 -25 53 -26
75 -5 57 8 -7 15 -21 15 -31z m1197 -16 c-3 -3 -13 -3 -21 -1 -15 3 -15 6 1
28 l18 25 3 -23 c2 -13 1 -26 -1 -29z m-1935 3 c4 -6 8 -23 8 -38 0 -21 -5
-28 -19 -28 -15 0 -19 7 -19 30 1 17 -4 36 -10 42 -7 7 -12 16 -12 20 0 11 42
-11 52 -26z m930 -17 c-34 -30 -57 -38 -50 -16 6 16 69 59 77 51 3 -3 -9 -19
-27 -35z m-1448 4 c8 -20 -1 -33 -19 -27 -16 6 -27 32 -20 44 8 12 32 2 39
-17z m1140 13 c-8 -21 -32 -28 -55 -16 -31 17 -22 30 21 30 30 0 38 -3 34 -14z
m1176 -6 c0 -5 -13 -16 -30 -25 -56 -29 -69 -13 -18 22 30 21 48 22 48 3z
m626 5 c10 -8 32 -15 47 -15 45 0 27 -25 -21 -28 -34 -3 -42 -8 -50 -30 -8
-24 -11 -25 -17 -9 -4 10 -3 29 3 43 11 22 9 24 -13 24 -24 0 -32 10 -18 23
11 12 48 8 69 -8z m153 -27 c1 -5 -10 -8 -24 -8 -29 0 -31 7 -8 32 17 19 18
19 24 1 4 -10 8 -21 8 -25z m-3531 -6 c2 -7 -3 -12 -12 -12 -9 0 -16 -8 -16
-17 -1 -18 -22 -53 -33 -53 -4 0 -4 13 -1 29 4 16 1 32 -5 35 -18 12 -12 28 8
21 11 -3 22 -1 26 5 8 13 27 8 33 -8z m140 -23 c-19 -25 -24 -28 -27 -13 -2
10 5 24 15 31 30 22 36 14 12 -18z m565 15 c15 -5 12 -44 -4 -44 -12 0 -30 36
-22 44 8 7 8 7 26 0z m1603 -35 c-36 -10 -43 -5 -26 16 10 12 16 12 34 3 20
-11 20 -12 -8 -19z m-1766 -14 c-7 -8 -16 -15 -21 -15 -13 0 -11 24 3 38 18
18 35 -3 18 -23z m969 4 c30 17 46 14 31 -5 -33 -39 -80 -37 -80 3 0 12 3 13
14 4 11 -9 20 -9 35 -2z m969 -17 c3 -23 3 -23 -27 -8 -45 24 -49 38 -10 34
27 -2 35 -8 37 -26z m-2185 -39 c4 -21 9 -50 13 -65 6 -27 6 -27 -27 -18 -19
6 -38 10 -43 10 -7 0 -5 -44 5 -80 3 -10 -3 -15 -16 -15 -20 0 -23 15 -10 48
6 13 0 20 -23 28 -30 10 -49 39 -38 58 3 5 16 11 28 14 21 5 21 5 6 -7 -26
-19 -22 -26 16 -26 22 0 36 6 40 17 8 21 -7 31 -62 39 -24 3 -41 8 -39 11 7 6
131 31 138 27 4 -2 9 -20 12 -41z m-238 3 c0 -26 -3 -32 -12 -24 -20 16 -15
58 6 58 3 0 6 -15 6 -34z m687 -34 c4 -44 3 -52 -10 -50 -9 2 -19 16 -23 32
-5 16 -14 33 -21 38 -10 6 -7 13 12 28 14 10 28 16 31 12 4 -4 9 -31 11 -60z
m1256 50 c2 -7 -6 -12 -17 -12 -21 0 -27 11 -14 24 9 9 26 2 31 -12z m1416 2
c9 -23 0 -29 -19 -14 -10 8 -15 9 -15 1 0 -6 -12 -11 -27 -11 -16 0 -39 -9
-53 -20 -27 -21 -55 -27 -44 -9 3 6 27 24 52 40 51 32 96 38 106 13z m-3064
-9 c0 -15 -26 -32 -36 -23 -2 3 -2 13 2 22 8 20 34 21 34 1z m3138 -11 c-9 -9
-21 -13 -28 -9 -9 6 -6 12 11 21 29 15 38 9 17 -12z m-1714 10 c27 -11 18 -30
-21 -42 -38 -12 -58 -7 -35 7 7 4 12 12 11 17 -4 25 11 31 45 18z m786 -19
c-13 -16 -40 -21 -40 -7 0 10 42 32 49 26 2 -2 -2 -10 -9 -19z m550 15 c13 -9
13 -11 0 -20 -24 -16 -40 -12 -40 10 0 22 16 26 40 10z m-2092 -33 c2 -10 -3
-17 -12 -17 -10 0 -16 9 -16 21 0 24 23 21 28 -4z m1403 6 c12 -15 12 -16 -5
-10 -10 4 -25 2 -32 -4 -11 -9 -14 -8 -14 3 0 31 30 38 51 11z m437 -7 c31
-30 1 -33 -41 -4 -15 11 -21 9 -37 -12 -20 -25 -20 -25 -20 -2 0 14 -6 22 -17
22 -16 0 -16 2 -3 11 21 14 99 5 118 -15z m-1538 4 c13 -8 13 -10 -2 -10 -9 0
-20 -5 -24 -11 -8 -14 14 -29 43 -29 14 0 23 -7 26 -22 3 -14 5 -9 6 15 1 40
7 44 36 23 18 -13 19 -19 8 -70 -13 -60 -10 -76 19 -117 17 -26 17 -27 -3 -32
-24 -6 -64 6 -74 23 -4 6 1 17 11 25 15 11 16 15 5 28 -10 13 -16 14 -32 4
-16 -10 -23 -8 -43 15 -14 14 -31 28 -38 30 -10 4 -8 9 5 22 22 23 13 38 -19
30 -13 -3 -24 -3 -24 1 0 17 35 64 54 74 27 13 28 13 46 1z m1332 -2 c-7 -7
-12 -20 -12 -29 0 -19 -25 -49 -42 -49 -5 0 -7 7 -4 16 3 8 -2 27 -11 41 -17
25 -16 25 4 19 12 -4 24 -2 28 4 3 5 16 10 28 10 16 0 18 -3 9 -12z m-2012
-28 c0 -12 -28 -25 -36 -17 -9 9 6 27 22 27 8 0 14 -5 14 -10z m560 -10 c0
-13 -7 -20 -18 -20 -10 0 -33 -11 -52 -25 -67 -49 -70 -23 -3 29 52 41 73 45
73 16z m558 -2 c15 -15 16 -55 2 -63 -6 -4 -23 1 -37 10 -19 13 -22 19 -12 25
10 7 10 11 0 24 -12 14 -10 16 11 16 13 0 29 -5 36 -12z m1230 -39 c-19 -12
-42 15 -34 38 7 17 9 16 27 -6 16 -19 17 -26 7 -32z m-2428 31 c0 -5 -13 -16
-29 -24 -15 -8 -34 -29 -41 -46 -18 -43 -34 -38 -25 8 4 20 8 37 8 37 1 1 18
8 37 17 42 20 50 21 50 8z m1003 -10 c-36 -22 -48 -40 -57 -90 -3 -20 -13 -46
-22 -59 l-17 -23 -14 38 c-22 58 -22 80 0 76 16 -3 18 2 15 30 -3 32 -1 33 37
39 22 3 51 7 65 8 24 1 24 0 -7 -19z m827 6 c0 -2 -18 -19 -40 -36 -43 -34
-52 -28 -19 14 17 21 59 37 59 22z m530 -27 c0 -12 -7 -19 -20 -19 -22 0 -26
20 -8 38 15 15 28 6 28 -19z m-620 6 c0 -8 -10 -19 -21 -26 -22 -11 -21 -3 4
29 12 16 17 15 17 -3z m-2236 -34 c4 -5 3 -16 0 -25 -5 -12 -10 -10 -30 11
-13 14 -21 29 -18 34 5 9 39 -5 48 -20z m2696 19 c0 -5 11 -26 25 -46 14 -20
22 -41 18 -47 -4 -7 -11 -1 -17 13 -6 14 -20 26 -31 28 -11 2 -27 10 -35 18
-12 12 -12 16 5 29 23 17 35 19 35 5z m-1935 -19 c0 -8 -10 -17 -22 -22 -19
-7 -23 -5 -23 10 0 10 3 21 7 25 11 11 38 2 38 -13z m75 -40 c0 -39 -13 -45
-41 -21 -24 20 -24 20 -5 35 31 23 46 18 46 -14z m840 -16 c36 -18 60 -43 60
-60 0 -9 -21 -1 -60 22 -35 21 -60 43 -60 53 0 24 13 33 22 15 5 -8 22 -22 38
-30z m285 36 c7 -12 -26 -31 -54 -31 -28 0 -27 18 2 30 29 12 45 12 52 1z
m119 -3 c-5 -7 -18 -21 -31 -31 -27 -22 -22 -37 12 -37 34 0 41 -18 10 -26
-31 -8 -75 12 -75 34 0 18 57 72 77 72 9 0 11 -5 7 -12z m1098 -40 c-15 -15
-46 -5 -50 14 -3 15 0 16 28 6 20 -7 28 -14 22 -20z m-3132 -3 c-14 -17 -40
-20 -40 -6 0 5 10 12 23 14 12 2 24 5 26 6 2 0 -2 -6 -9 -14z m454 -11 c9 -8
16 -21 16 -28 0 -9 9 -12 25 -8 19 3 25 0 25 -14 0 -28 -16 -48 -33 -41 -12 4
-67 90 -67 103 0 10 20 3 34 -12z m1396 -9 l23 -25 -31 0 c-24 0 -32 4 -32 18
0 15 8 32 15 32 1 0 12 -11 25 -25z m788 4 c19 -8 21 -12 12 -30 -10 -17 -8
-21 9 -26 17 -4 19 -9 10 -25 -23 -44 -69 -5 -94 80 -7 26 -3 26 63 1z m320 0
c1 -8 -9 -22 -24 -29 -24 -13 -27 -13 -40 5 -13 17 -13 21 3 33 23 16 57 12
61 -9z m-602 -4 c4 -8 3 -23 -1 -32 -6 -17 -7 -17 -20 0 -14 19 -10 47 6 47 5
0 12 -7 15 -15z m-2075 -15 l24 -19 -42 -1 c-24 0 -43 -4 -43 -10 0 -5 -4 -10
-10 -10 -15 0 -12 27 6 44 21 21 37 20 65 -4z m899 0 c13 -25 5 -40 -21 -40
-25 0 -35 25 -19 45 17 20 27 19 40 -5z m1238 8 c18 -18 15 -27 -8 -21 -11 3
-20 12 -20 19 0 17 12 18 28 2z m672 -8 c0 -21 -24 -27 -49 -11 -11 7 -10 11
5 20 29 16 44 13 44 -9z m-2692 -2 c20 -20 14 -38 -13 -38 -20 0 -25 5 -25 25
0 27 18 33 38 13z m2136 -4 c3 -9 6 -18 6 -20 0 -6 -36 -5 -55 3 -15 5 -14 8
6 19 31 17 36 17 43 -2z m-1694 -14 c0 -5 -2 -10 -4 -10 -2 0 -11 -3 -19 -6
-8 -3 -17 2 -20 10 -5 12 0 16 18 16 14 0 25 -4 25 -10z m-680 -24 c0 -19 -21
-26 -42 -14 -28 14 -21 28 12 28 19 0 30 -5 30 -14z m436 4 c9 0 12 -5 8 -11
-3 -6 -15 -9 -25 -6 -10 3 -20 0 -22 -7 -2 -6 -7 -8 -11 -5 -12 11 6 40 21 35
8 -3 21 -6 29 -6z m1144 -15 c0 -28 -21 -33 -41 -9 -10 13 -10 17 2 25 25 15
39 10 39 -16z m187 -47 c-18 -11 -29 19 -16 44 12 23 12 23 20 -7 6 -20 4 -32
-4 -37z m563 43 c0 -5 -7 -12 -16 -15 -22 -9 -24 -8 -24 9 0 8 9 15 20 15 11
0 20 -4 20 -9z m-1477 -19 c15 -2 27 -8 27 -13 0 -16 -23 -21 -46 -9 -19 11
-26 11 -39 0 -13 -10 -15 -9 -15 7 0 26 10 35 29 27 9 -4 28 -9 44 -12z m-803
-12 c0 -23 -4 -24 -31 -10 -27 15 -24 30 6 30 18 0 25 -5 25 -20z m991 -7 c13
-15 12 -16 -8 -11 -18 5 -23 2 -23 -12 0 -11 7 -23 16 -28 13 -7 13 -13 3 -36
-11 -23 -10 -29 2 -37 9 -6 18 -4 25 6 6 8 18 15 26 15 9 0 18 9 21 20 6 23
16 25 42 6 17 -12 15 -15 -26 -39 -51 -29 -100 -41 -129 -32 l-20 6 21 18 c19
15 20 20 9 61 -7 25 -19 53 -27 63 -15 16 -14 17 19 17 21 0 41 -7 49 -17z
m206 -64 c-36 -32 -59 -39 -34 -11 20 22 22 43 6 59 -6 6 -8 17 -4 23 5 8 16
3 36 -16 l29 -28 -33 -27z m133 57 c0 -23 -40 -66 -61 -66 -20 0 -7 28 16 34
18 5 25 13 25 31 0 14 5 25 10 25 6 0 10 -11 10 -24z m640 -41 c0 -3 -18 -5
-40 -5 l-39 0 21 36 21 35 18 -31 c11 -17 19 -33 19 -35z m109 34 c-5 -10 -22
-21 -37 -25 -15 -3 -32 -7 -39 -9 -19 -6 14 49 34 56 10 3 26 4 35 1 14 -3 15
-8 7 -23z m-234 7 c19 -14 19 -15 -7 -27 -22 -9 -30 -9 -43 1 -12 10 -13 16
-4 26 15 18 30 18 54 0z m392 -20 c-2 -32 -4 -34 -48 -40 -37 -5 -48 -11 -59
-34 -7 -15 -15 -22 -17 -15 -5 14 44 113 56 113 5 0 7 -10 4 -22 -5 -22 -4
-22 23 5 37 35 43 34 41 -7z m343 4 c0 -14 -27 -19 -39 -7 -18 18 -13 25 14
19 14 -2 25 -8 25 -12z m-2237 -12 c13 -20 2 -48 -20 -48 -13 0 -14 3 -5 12
17 17 15 26 -9 33 -17 6 -19 9 -8 16 17 11 30 7 42 -13z m237 -5 c23 -10 30
-17 20 -20 -50 -15 -79 -43 -45 -43 18 0 19 -12 3 -28 -19 -19 -28 -14 -40 19
-9 28 -12 29 -27 15 -26 -24 -37 -20 -48 19 -11 34 -10 35 13 29 20 -5 24 -2
24 16 0 19 4 21 33 15 17 -4 48 -14 67 -22z m290 3 c0 -24 -15 -36 -37 -29 -9
3 -8 11 5 28 22 31 32 31 32 1z m680 -7 c10 -6 3 -8 -22 -9 -25 0 -40 -6 -47
-17 -9 -16 -12 -15 -38 11 l-28 28 25 -5 c14 -4 32 -2 40 3 15 9 41 5 70 -11z
m920 16 c0 -3 -11 -10 -25 -15 -14 -5 -28 -17 -32 -26 -6 -17 13 -35 32 -28 6
3 16 -11 23 -31 10 -36 10 -37 -21 -50 -27 -11 -33 -11 -35 0 -2 7 -16 19 -33
25 -34 15 -37 27 -7 32 12 2 23 9 26 16 3 11 -6 12 -44 6 -59 -8 -58 -6 29 40
66 35 87 42 87 31z m-1661 -58 c79 -39 90 -57 29 -50 -51 7 -80 21 -128 63
l-35 31 35 -6 c19 -3 64 -20 99 -38z m1276 -4 c-10 -56 -24 -76 -25 -36 0 20
-7 36 -17 42 -16 9 -16 11 7 20 40 16 43 13 35 -26z m-750 -10 c-5 -21 -1 -31
17 -45 21 -16 21 -18 4 -18 -11 0 -27 7 -37 16 -17 15 -17 19 -3 45 18 36 28
37 19 2z m870 16 c4 -6 4 -27 0 -47 -8 -35 -8 -36 -15 -12 -16 53 -6 93 15 59z
m-206 -59 c22 -72 40 -110 52 -110 6 0 8 11 4 29 -5 23 -2 29 14 34 17 4 21 0
21 -19 0 -26 4 -27 35 -14 l20 9 -20 1 c-14 1 -8 6 18 17 45 18 67 12 67 -20
0 -20 -4 -23 -32 -19 -25 2 -47 -6 -88 -32 -61 -40 -72 -43 -90 -21 -7 8 -16
15 -20 15 -13 0 -21 -33 -10 -44 18 -18 11 -27 -17 -24 -25 3 -29 8 -34 53 -4
28 -10 64 -14 80 l-8 30 31 -29 31 -29 12 26 c11 25 9 37 -16 101 -6 14 -4 17
11 14 13 -2 24 -19 33 -48z m-1296 24 c3 -4 2 -15 -4 -26 -14 -25 -4 -35 17
-17 15 12 16 11 10 -9 -3 -12 -9 -32 -12 -43 -4 -14 -2 -19 5 -15 27 17 77
-44 95 -117 5 -23 10 -26 31 -21 14 3 25 2 25 -4 0 -12 -24 -22 -55 -22 -12 0
-28 -7 -35 -15 -15 -18 -51 -20 -68 -3 -8 8 -15 8 -26 -1 -30 -25 -56 80 -37
147 6 24 6 24 24 5 16 -18 16 -23 2 -56 -18 -45 -2 -60 19 -18 24 46 22 81 -7
141 -15 30 -27 61 -27 68 0 12 32 17 43 6z m946 -75 c-11 -7 -9 -25 6 -76 6
-17 3 -23 -9 -23 -10 0 -13 6 -9 16 3 9 -3 21 -17 31 -16 12 -21 23 -18 45 3
16 1 31 -4 34 -4 3 -8 15 -8 27 0 19 3 18 35 -13 23 -22 31 -36 24 -41z m155
49 c18 -25 21 -58 6 -58 -10 0 -40 52 -40 70 0 17 18 11 34 -12z m-1308 -23
c-1 -34 -2 -35 -42 -35 -26 0 -47 6 -55 16 -11 14 -9 15 17 12 21 -2 34 3 47
20 26 31 34 28 33 -13z m744 10 c0 -30 -19 -40 -56 -31 l-27 7 34 24 c43 31
49 31 49 0z m-96 -39 c-4 -11 4 -17 33 -22 l38 -7 -30 -13 c-16 -7 -34 -10
-38 -7 -4 3 -14 -1 -23 -7 -11 -10 -12 -16 -2 -28 11 -13 10 -14 -2 -9 -8 4
-23 10 -32 13 -22 8 -22 22 -3 48 34 45 -2 50 -42 6 -29 -33 -57 -39 -67 -14
-4 11 1 18 14 21 11 3 20 13 20 23 0 14 8 17 40 16 25 0 46 6 57 16 16 16 17
16 30 -2 7 -10 10 -25 7 -34z m1126 11 c0 -5 -7 -4 -15 3 -8 7 -15 20 -15 29
1 13 3 13 15 -3 8 -11 15 -24 15 -29z m267 6 c-4 -20 -2 -42 4 -49 13 -16 4
-34 -16 -34 -17 0 -26 31 -22 82 1 30 6 38 21 38 16 0 18 -5 13 -37z m-2167
-8 c-6 -8 -9 -30 -6 -52 l6 -38 -15 33 c-13 28 -18 32 -30 22 -13 -10 -15 -8
-15 17 0 38 3 41 40 35 24 -3 28 -7 20 -17z m446 -2 c-4 -35 -20 -40 -34 -9
-12 27 -7 36 19 36 13 0 17 -7 15 -27z m-244 -8 c-5 -29 -37 -52 -47 -34 -7
10 31 59 45 59 4 0 5 -11 2 -25z m2028 -13 c-29 -5 -36 4 -19 24 12 14 14 14
27 -3 11 -16 11 -18 -8 -21z m-1270 -16 c0 -7 -6 -19 -14 -25 -19 -16 -32 5
-16 24 16 19 30 19 30 1z m-415 -39 c4 -17 12 -38 18 -45 8 -10 7 -16 -3 -22
-7 -4 -10 -15 -7 -23 4 -10 -8 -7 -40 11 -42 23 -44 26 -27 39 10 7 21 13 26
13 4 0 8 16 8 36 0 42 16 37 25 -9z m633 12 c2 -14 -2 -38 -9 -55 l-11 -29 -9
24 c-7 17 -14 21 -27 16 -43 -17 -50 -4 -22 43 16 27 26 33 48 30 21 -2 28 -9
30 -29z m772 15 c0 -27 -55 -31 -69 -5 -9 17 -6 18 29 17 23 0 40 -6 40 -12z
m140 -43 c0 -18 -27 -37 -38 -26 -5 4 26 45 35 45 1 0 3 -9 3 -19z m-1268 -54
c2 -18 10 -22 43 -23 70 -2 72 -3 48 -23 -32 -27 -29 -38 17 -61 39 -20 59
-50 23 -34 -10 4 -31 8 -47 8 -18 1 -33 8 -39 21 -18 35 -21 41 -49 83 -31 46
-35 64 -14 56 8 -3 16 -15 18 -27z m512 8 c3 -9 -7 -30 -25 -50 -17 -19 -28
-39 -24 -45 8 -14 -8 -13 -23 2 -7 7 -8 17 -2 28 10 18 4 22 -65 45 -20 6 -20
7 -1 21 28 20 132 19 140 -1z m-579 -17 c11 -16 12 -24 4 -27 -12 -4 -39 25
-39 41 0 16 19 8 35 -14z m385 -13 c11 -13 7 -15 -29 -15 -46 0 -52 6 -18 20
31 12 33 12 47 -5z m513 -11 c-9 -15 -19 -21 -21 -15 -6 19 6 41 23 41 14 0
13 -3 -2 -26z m-1077 -52 c-4 -3 -12 0 -19 7 -9 9 -9 14 3 21 11 7 16 5 18 -6
2 -9 1 -18 -2 -22z m631 13 c3 -9 3 -18 0 -21 -9 -9 -48 16 -42 27 9 14 35 11
42 -6z m-422 -14 c-8 -13 -45 -15 -45 -2 0 5 10 11 23 13 27 5 31 3 22 -11z
m559 3 c3 -8 1 -25 -6 -37 l-11 -22 -10 22 c-10 23 -4 53 12 53 5 0 12 -7 15
-16z m-214 -4 c0 -13 -48 -36 -56 -27 -4 3 -4 13 -1 22 7 17 57 21 57 5z
m-105 -9 c3 -5 1 -13 -5 -16 -15 -9 -43 3 -35 15 8 13 32 13 40 1z m185 -47
c0 -14 5 -34 11 -46 9 -17 8 -19 -7 -16 -21 4 -40 48 -31 72 10 25 27 19 27
-10z m-50 -49 c0 -24 -2 -25 -42 -19 -51 8 -52 9 -45 29 4 10 20 15 47 15 36
0 40 -2 40 -25z"/>
</g>
</svg>
